Genre:Drama
Language:English
IMDb:http://www.imdb.com/title/tt1421051/
Source:BluRay.Rus.Eng.HDCLUB

Format : MPEG-4
Format profile : Base Media
Codec ID : isom
File size : 1.27 GiB
Duration : 1h 37mn
Overall bit rate : 1 863 Kbps
Movie name : Somewhere.2010.480p.BRRip.x264.Feel-Free


Video
Format settings, CABAC : Yes
Format settings, ReFrames : 4 frames
Codec ID : avc1
Codec ID/Info : Advanced Video Coding
Duration : 1h 37mn
Bit rate mode : Variable
Bit rate : 1 500 Kbps
Width : 720 pixels
Height : 388 pixels
Display aspect ratio : 1.856
Frame rate mode : Constant
Frame rate : 23.976 fps
Color space : YUV
Chroma subsampling : 4:2:0
Bit depth : 8 bits
Scan type : Progressive
Bits/(Pixel*Frame) : 0.224
Stream size : 1.01 GiB (79%)
Writing library : x264

Audio
ID : 2
Format : AAC
Format/Info : Advanced Audio Codec
Format version : Version 4
Format profile : LC
Codec ID : 40
Duration : 1h 37mn
Bit rate mode : Variable
Bit rate : 384 Kbps
Channel(s) : 6 channels
Channel positions : Front: L C R, Side: L R, LFE
Sampling rate : 48.0 KHz
Stream size : 268 MiB (21%)


Plot:
A hard-living Hollywood actor re-examines his life after his 11-year-old daughter surprises him with a visit